<?xml version="1.0" encoding="UTF-8" standalone="no"?>
<!-- Created with Inkscape (http://www.inkscape.org/) -->

<svg
   xmlns:dc="http://purl.org/dc/elements/1.1/"
   xmlns:cc="http://creativecommons.org/ns#"
   xmlns:rdf="http://www.w3.org/1999/02/22-rdf-syntax-ns#"
   xmlns:svg="http://www.w3.org/2000/svg"
   xmlns="http://www.w3.org/2000/svg"
   xmlns:sodipodi="http://sodipodi.sourceforge.net/DTD/sodipodi-0.dtd"
   xmlns:inkscape="http://www.inkscape.org/namespaces/inkscape"
   width="210mm"
   height="297mm"
   viewBox="0 0 210 297"
   version="1.1"
   id="svg8"
   inkscape:version="0.92.0 r15299"
   sodipodi:docname="reStepper_base.svg">
  <defs
     id="defs2">
    <marker
       style="overflow:visible"
       refY="0.0"
       refX="0.0"
       orient="auto"
       id="DistanceX">
      <path
         id="path4487"
         style="stroke:#000000; stroke-width:0.5"
         d="M 3,-3 L -3,3 M 0,-5 L  0,5" />
    </marker>
    <pattern
       y="0"
       x="0"
       width="8"
       patternUnits="userSpaceOnUse"
       id="Hatch"
       height="8">
      <path
         id="path4490"
         stroke-width="0.25"
         stroke="#000000"
         linecap="square"
         d="M8 4 l-4,4" />
      <path
         id="path4492"
         stroke-width="0.25"
         stroke="#000000"
         linecap="square"
         d="M6 2 l-4,4" />
      <path
         id="path4494"
         stroke-width="0.25"
         stroke="#000000"
         linecap="square"
         d="M4 0 l-4,4" />
    </pattern>
    <symbol
       id="*MODEL_SPACE" />
    <symbol
       id="*PAPER_SPACE" />
  </defs>
  <sodipodi:namedview
     id="base"
     pagecolor="#ffffff"
     bordercolor="#666666"
     borderopacity="1.0"
     inkscape:pageopacity="0.0"
     inkscape:pageshadow="2"
     inkscape:zoom="0.24748737"
     inkscape:cx="944.81438"
     inkscape:cy="628.15832"
     inkscape:document-units="mm"
     inkscape:current-layer="g5095"
     showgrid="false"
     inkscape:window-width="1920"
     inkscape:window-height="1017"
     inkscape:window-x="1912"
     inkscape:window-y="-8"
     inkscape:window-maximized="1" />
  <metadata
     id="metadata5">
    <rdf:RDF>
      <cc:Work
         rdf:about="">
        <dc:format>image/svg+xml</dc:format>
        <dc:type
           rdf:resource="http://purl.org/dc/dcmitype/StillImage" />
        <dc:title></dc:title>
      </cc:Work>
    </rdf:RDF>
  </metadata>
  <g
     inkscape:label="Layer 1"
     inkscape:groupmode="layer"
     id="layer1">
    <g
       id="g5095"
       inkscape:label="0"
       transform="matrix(0.26458333,0,0,0.26458333,-351.25253,1.4704801)">
      <path
         id="path4827"
         style="fill:none;stroke:#000000"
         d="m 2739.5469,1997.5851 v 0"
         inkscape:connector-curvature="0" />
      <path
         id="path4909"
         style="fill:none;stroke:#000000"
         d="m 1228.9661,777.23655 v 96"
         inkscape:connector-curvature="0" />
      <path
         id="path4911"
         style="fill:none;stroke:#000000"
         d="m 364.96611,873.23655 v -96"
         inkscape:connector-curvature="0" />
      <path
         id="path4913"
         style="fill:none;stroke:#000000"
         d="M 801.76611,830.03655 H 1219.3661"
         inkscape:connector-curvature="0" />
      <path
         id="path4915"
         style="fill:none;stroke:#000000"
         d="m 792.16611,830.03655 h -417.6"
         inkscape:connector-curvature="0" />
      <path
         id="path4917"
         style="fill:none;stroke:#000000"
         d="m 1228.9661,825.23655 v -2.88"
         inkscape:connector-curvature="0" />
      <path
         id="path4919"
         style="fill:none;stroke:#000000"
         d="m 1228.9661,822.35655 h -192"
         inkscape:connector-curvature="0" />
      <path
         id="path4921"
         style="fill:none;stroke:#000000"
         d="M 1027.3661,822.35655 H 566.56611"
         inkscape:connector-curvature="0" />
      <path
         id="path4923"
         style="fill:none;stroke:#000000"
         d="m 556.96611,822.35655 h -192"
         inkscape:connector-curvature="0" />
      <path
         id="path4925"
         style="fill:none;stroke:#000000"
         d="m 556.96611,837.71655 h -192"
         inkscape:connector-curvature="0" />
      <path
         id="path4927"
         style="fill:none;stroke:#000000"
         d="m 792.16611,845.39655 h -417.6"
         inkscape:connector-curvature="0" />
      <path
         id="path4929"
         style="fill:none;stroke:#000000"
         d="M 1027.3661,837.71655 H 566.56611"
         inkscape:connector-curvature="0" />
      <path
         id="path4931"
         style="fill:none;stroke:#000000"
         d="M 801.76611,845.39655 H 1219.3661"
         inkscape:connector-curvature="0" />
      <path
         id="path4933"
         style="fill:none;stroke:#000000"
         d="m 1228.9661,837.71655 h -192"
         inkscape:connector-curvature="0" />
      <path
         id="path4935"
         style="fill:none;stroke:#000000"
         d="m 556.96611,806.99655 h -192"
         inkscape:connector-curvature="0" />
      <path
         id="path4937"
         style="fill:none;stroke:#000000"
         d="m 792.16611,814.67655 h -417.6"
         inkscape:connector-curvature="0" />
      <path
         id="path4939"
         style="fill:none;stroke:#000000"
         d="M 1027.3661,806.99655 H 566.56611"
         inkscape:connector-curvature="0" />
      <path
         id="path4941"
         style="fill:none;stroke:#000000"
         d="M 801.76611,814.67655 H 1219.3661"
         inkscape:connector-curvature="0" />
      <path
         id="path4943"
         style="fill:none;stroke:#000000"
         d="m 1228.9661,806.99655 h -192"
         inkscape:connector-curvature="0" />
      <path
         id="path4945"
         style="fill:none;stroke:#000000"
         d="m 792.16611,799.31655 h -417.6"
         inkscape:connector-curvature="0" />
      <path
         id="path4947"
         style="fill:none;stroke:#000000"
         d="M 801.76611,799.31655 H 1219.3661"
         inkscape:connector-curvature="0" />
      <path
         id="path4949"
         style="fill:none;stroke:#000000"
         d="m 807.81411,201.23655 v 72 a 12,12 0 0 1 0,24 h -21.696 v -96 z"
         inkscape:connector-curvature="0" />
      <path
         id="path4951"
         style="fill:none;stroke:#000000"
         d="m 628.96611,297.23655 h -144 v 21.696 h 144 z"
         inkscape:connector-curvature="0" />
      <path
         id="path4953"
         style="fill:none;stroke:#000000"
         d="m 964.96611,297.23655 h 143.99999 v 21.696 H 964.96611 Z"
         inkscape:connector-curvature="0" />
      <path
         id="path4955"
         style="fill:none;stroke:#000000"
         d="m 1359.9678,354.44355 h -96.0002 v 48 h 11.3386 v 96 h -11.3386 v 48 h 96 v 11.33856 h 96 v -11.33856 h 288.0002 v 11.33856 h 96 v -11.33856 h 96 v 11.33856 h 96 v -11.33856 h 134.3716 l -33.9411,-33.94113 8.0175,-8.01757 -67.8822,-67.88225 -8.0176,8.01757 -73.885,-73.88498 a 57.59953,57.59953 0 0 0 -31.3312,-16.09868 14.4,14.4 0 0 0 -2.3494,-0.19296 h -116.9826 v -11.33856 h -96 v 11.33856 h -288 v -11.33856 h -96 z"
         inkscape:connector-curvature="0" />
      <path
         id="path4957"
         style="fill:none;stroke:#000000"
         d="m 1228.9661,105.23655 v 96"
         inkscape:connector-curvature="0" />
      <path
         id="path4959"
         style="fill:none;stroke:#000000"
         d="m 1228.9661,201.23655 h -11.3386"
         inkscape:connector-curvature="0" />
      <path
         id="path4961"
         style="fill:none;stroke:#000000"
         d="m 1217.6275,201.23655 v 96"
         inkscape:connector-curvature="0" />
      <path
         id="path4963"
         style="fill:none;stroke:#000000"
         d="m 1217.6275,297.23655 h 11.3386"
         inkscape:connector-curvature="0" />
      <path
         id="path4965"
         style="fill:none;stroke:#000000"
         d="m 1228.9661,297.23655 v 288"
         inkscape:connector-curvature="0" />
      <path
         id="path4967"
         style="fill:none;stroke:#000000"
         d="m 1228.9661,585.23655 h -11.3386"
         inkscape:connector-curvature="0" />
      <path
         id="path4969"
         style="fill:none;stroke:#000000"
         d="m 1217.6275,585.23655 v 96"
         inkscape:connector-curvature="0" />
      <path
         id="path4971"
         style="fill:none;stroke:#000000"
         d="m 1217.6275,681.23655 h 11.3386"
         inkscape:connector-curvature="0" />
      <path
         id="path4973"
         style="fill:none;stroke:#000000"
         d="m 1228.9661,681.23655 v 96"
         inkscape:connector-curvature="0" />
      <path
         id="path4975"
         style="fill:none;stroke:#000000"
         d="M 1228.9661,1081.1725 H 364.96611"
         inkscape:connector-curvature="0" />
      <path
         id="path4977"
         style="fill:none;stroke:#000000"
         d="m 1228.9661,1081.1725 v -48"
         inkscape:connector-curvature="0" />
      <path
         id="path4979"
         style="fill:none;stroke:#000000"
         d="m 1228.9661,1033.1725 h -11.3386"
         inkscape:connector-curvature="0" />
      <path
         id="path4981"
         style="fill:none;stroke:#000000"
         d="M 1217.6275,1033.1725 V 937.17255"
         inkscape:connector-curvature="0" />
      <path
         id="path4983"
         style="fill:none;stroke:#000000"
         d="m 1217.6275,937.17255 h 11.3386"
         inkscape:connector-curvature="0" />
      <path
         id="path4985"
         style="fill:none;stroke:#000000"
         d="m 1228.9661,937.17255 v -63.936"
         inkscape:connector-curvature="0" />
      <path
         id="path4987"
         style="fill:none;stroke:#000000"
         d="m 1156.9661,977.20455 a 24,24 0 1 0 -48,0 24,24 0 1 0 48,0 z"
         inkscape:connector-curvature="0" />
      <path
         id="path4989"
         style="fill:none;stroke:#000000"
         d="m 1060.9661,977.20455 a 24,24 0 1 0 -48,0 24,24 0 1 0 48,0 z"
         inkscape:connector-curvature="0" />
      <path
         id="path4991"
         style="fill:none;stroke:#000000"
         d="m 470.56611,977.20455 a 9.6,9.6 0 1 0 -19.2,0 9.6,9.6 0 1 0 19.2,0 z"
         inkscape:connector-curvature="0" />
      <path
         id="path4993"
         style="fill:none;stroke:#000000"
         d="m 947.25241,1023.7645 h -264 v -93.11995 h 264 z"
         inkscape:connector-curvature="0" />
      <path
         id="path4995"
         style="fill:none;stroke:#000000"
         d="m 590.08611,977.20455 a 13.92,13.92 0 1 0 -27.84,0 13.92,13.92 0 1 0 27.84,0 z"
         inkscape:connector-curvature="0" />
      <path
         id="path4997"
         style="fill:none;stroke:#000000"
         d="m 963.09241,919.12455 a 5.76,5.76 0 1 0 -11.52,0 5.76,5.76 0 1 0 11.52,0 z"
         inkscape:connector-curvature="0" />
      <path
         id="path4999"
         style="fill:none;stroke:#000000"
         d="m 678.93241,919.12455 a 5.76,5.76 0 1 0 -11.52,0 5.76,5.76 0 1 0 11.52,0 z"
         inkscape:connector-curvature="0" />
      <path
         id="path5001"
         style="fill:none;stroke:#000000"
         d="m 678.93241,1035.2845 a 5.76,5.76 0 1 0 -11.52,0 5.76,5.76 0 1 0 11.52,0 z"
         inkscape:connector-curvature="0" />
      <path
         id="path5003"
         style="fill:none;stroke:#000000"
         d="m 963.09241,1035.2845 a 5.76,5.76 0 1 0 -11.52,0 5.76,5.76 0 1 0 11.52,0 z"
         inkscape:connector-curvature="0" />
      <path
         id="path5005"
         style="fill:none;stroke:#000000"
         d="m 2207.7604,1024.8808 h 864 V 890.48076 h -11.3386 v -96 h 11.3386 v -96 h -11.3386 v -96 h 11.3386 v -288 h -11.3386 v -96 h 11.3386 v -96 h -107.3386 v 11.33856 h -649.3229 v -11.33856 h -107.3385 v 96 h 11.3385 v 96 h -11.3385 v 288 h 11.3385 v 96 h -11.3385 v 96 h 11.3385 v 96 h -11.3385 z"
         inkscape:connector-curvature="0" />
      <path
         id="path5007"
         style="fill:none;stroke:#000000"
         d="m 2650.6084,218.48076 v 96 h -21.696 v -96 z"
         inkscape:connector-curvature="0" />
      <path
         id="path5009"
         style="fill:none;stroke:#000000"
         d="m 2951.7604,314.48076 v 21.696 h -144 v -21.696 z"
         inkscape:connector-curvature="0" />
      <path
         id="path5011"
         style="fill:none;stroke:#000000"
         d="m 2327.7604,314.48076 v 21.696 h 144 v -21.696 z"
         inkscape:connector-curvature="0" />
      <path
         id="path5013"
         style="fill:none;stroke:#000000"
         d="m 364.96611,105.23655 v 96"
         inkscape:connector-curvature="0" />
      <path
         id="path5015"
         style="fill:none;stroke:#000000"
         d="m 364.96611,201.23655 h 11.3385"
         inkscape:connector-curvature="0" />
      <path
         id="path5017"
         style="fill:none;stroke:#000000"
         d="m 376.30461,201.23655 v 96"
         inkscape:connector-curvature="0" />
      <path
         id="path5019"
         style="fill:none;stroke:#000000"
         d="m 376.30461,297.23655 h -11.3385"
         inkscape:connector-curvature="0" />
      <path
         id="path5021"
         style="fill:none;stroke:#000000"
         d="m 364.96611,297.23655 v 288"
         inkscape:connector-curvature="0" />
      <path
         id="path5023"
         style="fill:none;stroke:#000000"
         d="m 364.96611,585.23655 h 11.3385"
         inkscape:connector-curvature="0" />
      <path
         id="path5025"
         style="fill:none;stroke:#000000"
         d="m 376.30461,585.23655 v 96"
         inkscape:connector-curvature="0" />
      <path
         id="path5027"
         style="fill:none;stroke:#000000"
         d="m 376.30461,681.23655 h -11.3385"
         inkscape:connector-curvature="0" />
      <path
         id="path5029"
         style="fill:none;stroke:#000000"
         d="m 364.96611,681.23655 v 96"
         inkscape:connector-curvature="0" />
      <path
         id="path5031"
         style="fill:none;stroke:#000000"
         d="m 364.96611,1081.1725 v -48"
         inkscape:connector-curvature="0" />
      <path
         id="path5033"
         style="fill:none;stroke:#000000"
         d="m 364.96611,1033.1725 h 11.3385"
         inkscape:connector-curvature="0" />
      <path
         id="path5035"
         style="fill:none;stroke:#000000"
         d="M 376.30461,1033.1725 V 937.17255"
         inkscape:connector-curvature="0" />
      <path
         id="path5037"
         style="fill:none;stroke:#000000"
         d="m 376.30461,937.17255 h -11.3385"
         inkscape:connector-curvature="0" />
      <path
         id="path5039"
         style="fill:none;stroke:#000000"
         d="m 364.96611,937.17255 v -63.936"
         inkscape:connector-curvature="0" />
      <path
         id="path5041"
         style="fill:none;stroke:#000000"
         d="m 2115.1408,165.79348 h -11.3386"
         inkscape:connector-curvature="0" />
      <path
         id="path5043"
         style="fill:none;stroke:#000000"
         d="m 2103.8022,165.79348 v -48"
         inkscape:connector-curvature="0" />
      <path
         id="path5045"
         style="fill:none;stroke:#000000"
         d="m 2115.1408,261.79348 h -11.3386"
         inkscape:connector-curvature="0" />
      <path
         id="path5047"
         style="fill:none;stroke:#000000"
         d="m 2103.8022,261.79348 v 48"
         inkscape:connector-curvature="0" />
      <path
         id="path5049"
         style="fill:none;stroke:#000000"
         d="M 2115.1408,261.79348 V 167.27599"
         inkscape:connector-curvature="0" />
      <path
         id="path5051"
         style="fill:none;stroke:#000000"
         d="m 1262.4794,117.79348 v 48"
         inkscape:connector-curvature="0" />
      <path
         id="path5053"
         style="fill:none;stroke:#000000"
         d="m 1262.4794,165.79348 h -11.3386"
         inkscape:connector-curvature="0" />
      <path
         id="path5055"
         style="fill:none;stroke:#000000"
         d="m 1251.1408,165.79348 v 96"
         inkscape:connector-curvature="0" />
      <path
         id="path5057"
         style="fill:none;stroke:#000000"
         d="m 1251.1408,261.79348 h 11.3386"
         inkscape:connector-curvature="0" />
      <path
         id="path5059"
         style="fill:none;stroke:#000000"
         d="m 1262.4794,261.79348 v 48"
         inkscape:connector-curvature="0" />
      <path
         id="path5061"
         style="fill:none;stroke:#000000"
         d="m 1262.4794,309.79348 h 96"
         inkscape:connector-curvature="0" />
      <path
         id="path5063"
         style="fill:none;stroke:#000000"
         d="m 1358.4794,309.79348 v 11.33856"
         inkscape:connector-curvature="0" />
      <path
         id="path5065"
         style="fill:none;stroke:#000000"
         d="m 2103.8022,309.79348 h -96"
         inkscape:connector-curvature="0" />
      <path
         id="path5067"
         style="fill:none;stroke:#000000"
         d="m 2007.8022,309.79348 v 11.33856"
         inkscape:connector-curvature="0" />
      <path
         id="path5069"
         style="fill:none;stroke:#000000"
         d="M 2007.8022,321.13204 H 1358.4794"
         inkscape:connector-curvature="0" />
      <path
         id="path5071"
         style="fill:none;stroke:#000000"
         d="m 364.96611,105.23655 h 107.3385"
         inkscape:connector-curvature="0" />
      <path
         id="path5073"
         style="fill:none;stroke:#000000"
         d="m 472.30461,105.23655 v 11.33856"
         inkscape:connector-curvature="0" />
      <path
         id="path5075"
         style="fill:none;stroke:#000000"
         d="M 472.30461,116.57511 H 1121.6275"
         inkscape:connector-curvature="0" />
      <path
         id="path5077"
         style="fill:none;stroke:#000000"
         d="M 1121.6275,116.57511 V 105.23653"
         inkscape:connector-curvature="0" />
      <path
         id="path5079"
         style="fill:none;stroke:#000000"
         d="m 1121.6275,105.23653 107.3386,2e-5"
         inkscape:connector-curvature="0" />
      <path
         id="path5081"
         style="fill:none;stroke:#000000"
         d="m 1262.4794,117.79348 h 96"
         inkscape:connector-curvature="0" />
      <path
         id="path5083"
         style="fill:none;stroke:#000000"
         d="M 1358.4794,117.79348 V 106.45492"
         inkscape:connector-curvature="0" />
      <path
         id="path5085"
         style="fill:none;stroke:#000000"
         d="m 1358.4794,106.45492 h 649.3228"
         inkscape:connector-curvature="0" />
      <path
         id="path5087"
         style="fill:none;stroke:#000000"
         d="m 2007.8022,106.45492 v 11.33856"
         inkscape:connector-curvature="0" />
      <path
         id="path5089"
         style="fill:none;stroke:#000000"
         d="m 2007.8022,117.79348 h 96"
         inkscape:connector-curvature="0" />
      <path
         id="path5091"
         style="fill:none;stroke:#000000"
         d="m 1359.9678,594.44355 h -96.0002 v 48 h 11.3386 v 96 h -11.3386 v 48 h 96 v 11.33856 h 96 v -11.33856 h 288.0002 v 11.33856 h 96 v -11.33856 h 96 v 11.33856 h 96 v -11.33856 h 134.3716 l -33.9411,-33.94113 8.0175,-8.01757 -67.8822,-67.88225 -8.0176,8.01757 -73.885,-73.88498 a 57.59953,57.59953 0 0 0 -31.3312,-16.09868 14.4,14.4 0 0 0 -2.3494,-0.19296 h -116.9826 v -11.33856 h -96 v 11.33856 h -288 v -11.33856 h -96 z"
         inkscape:connector-curvature="0" />
      <path
         id="path5093"
         style="fill:none;stroke:#000000"
         d="m 1370.4794,261.79348 a 12,12 0 1 0 -24,0 12,12 0 1 0 24,0 z"
         inkscape:connector-curvature="0" />
    </g>
  </g>
</svg>
