0
SECTION
2
HEADER
9
$INSUNITS
70
1
9
$ACADVER
1
AC1014
9
$HANDSEED
5
FFFF
0
ENDSEC
0
SECTION
2
TABLES
0
TABLE
2
VPORT
5
8
100
AcDbSymbolTable
0
ENDTAB
0
TABLE
2
LTYPE
5
5
100
AcDbSymbolTable
0
LTYPE
5
14
100
AcDbSymbolTableRecord
100
AcDbLinetypeTableRecord
2
BYBLOCK
70
0
0
LTYPE
5
15
100
AcDbSymbolTableRecord
100
AcDbLinetypeTableRecord
2
BYLAYER
70
0
0
ENDTAB
0
TABLE
2
LAYER
5
2
100
AcDbSymbolTable
70
2
0
LAYER
5
50
100
AcDbSymbolTableRecord
100
AcDbLayerTableRecord
2
0
70
0
6
CONTINUOUS
0
ENDTAB
0
TABLE
2
STYLE
5
3
100
AcDbSymbolTable
70
1
0
STYLE
5
11
100
AcDbSymbolTableRecord
100
AcDbTextStyleTableRecord
2
STANDARD
70
0
0
ENDTAB
0
TABLE
2
VIEW
5
6
100
AcDbSymbolTable
70
0
0
ENDTAB
0
TABLE
2
UCS
5
7
100
AcDbSymbolTable
70
0
0
ENDTAB
0
TABLE
2
APPID
5
9
100
AcDbSymbolTable
70
2
0
APPID
5
12
100
AcDbSymbolTableRecord
100
AcDbRegAppTableRecord
2
ACAD
70
0
0
ENDTAB
0
TABLE
2
DIMSTYLE
5
A
100
AcDbSymbolTable
70
1
0
ENDTAB
0
TABLE
2
BLOCK_RECORD
5
1
100
AcDbSymbolTable
70
1
0
BLOCK_RECORD
5
1F
100
AcDbSymbolTableRecord
100
AcDbBlockTableRecord
2
*MODEL_SPACE
0
BLOCK_RECORD
5
1B
100
AcDbSymbolTableRecord
100
AcDbBlockTableRecord
2
*PAPER_SPACE
0
ENDTAB
0
ENDSEC
0
SECTION
2
BLOCKS
0
BLOCK
5
20
100
AcDbEntity
100
AcDbBlockBegin
2
*MODEL_SPACE
0
ENDBLK
5
21
100
AcDbEntity
100
AcDbBlockEnd
0
BLOCK
5
1C
100
AcDbEntity
100
AcDbBlockBegin
2
*PAPER_SPACE
0
ENDBLK
5
1D
100
AcDbEntity
100
AcDbBlockEnd
0
ENDSEC
0
SECTION
2
ENTITIES
0
ARC
5
100
100
AcDbEntity
8
0
100
AcDbCircle
10
7.9999999999999982
20
1.6999999999999997
30
0
40
0.49999999999999978
100
AcDbArc
50
-90
51
90
0
ARC
5
101
100
AcDbEntity
8
0
100
AcDbCircle
10
0
20
1.6999999999999997
30
0
40
0.50000000000000011
100
AcDbArc
50
90
51
270
0
LINE
5
102
100
AcDbEntity
8
0
100
AcDbLine
10
0
20
1.2
30
0
11
7.9999999999999982
21
1.2
31
0
0
CIRCLE
5
103
100
AcDbEntity
8
0
100
AcDbCircle
10
0
20
1.6999999999999997
30
0
40
0.099999999999999992
0
CIRCLE
5
104
100
AcDbEntity
8
0
100
AcDbCircle
10
7.9999999999999982
20
1.6999999999999997
30
0
40
0.099999999999999811
0
LINE
5
105
100
AcDbEntity
8
0
100
AcDbLine
10
7.9999999999999982
20
2.1999999999999997
30
0
11
0
21
2.1999999999999997
31
0
0
ARC
5
106
100
AcDbEntity
8
0
100
AcDbCircle
10
2.4944445595132176
20
4.9000001563800595
30
0
40
1.0055555521868251
100
AcDbArc
50
-83.974426810085305
51
0
0
ARC
5
107
100
AcDbEntity
8
0
100
AcDbCircle
10
5.4016704721939046
20
4.8065048758766258
30
0
40
0.90650471949656608
100
AcDbArc
50
174.08008814791719
51
270
0
ARC
5
108
100
AcDbEntity
8
0
100
AcDbCircle
10
4.0008352775855398
20
3.9959406170719478
30
0
40
1.4041167381849802
100
AcDbArc
50
183.91795756732748
51
356.08204243267255
0
ARC
5
109
100
AcDbEntity
8
0
100
AcDbCircle
10
4.0000001117000421
20
4.9000001563800595
30
0
40
0.49999999999999989
100
AcDbArc
50
-7.6322672554644075
51
180
0
CIRCLE
5
110
100
AcDbEntity
8
0
100
AcDbCircle
10
4.0000001117000421
20
4.9000001563800595
30
0
40
0.099999999999999811
0
LWPOLYLINE
5
111
100
AcDbEntity
8
0
100
AcDbPolyline
90
4
70
1
43
0.0
10
4.2508352775855398
20
3.9959406170719478
10
4.4768352775855398
20
3.9959406170719478
10
4.4768352775855398
20
3.2459406170719483
10
4.2508352775855398
20
3.2459406170719483
0
LWPOLYLINE
5
112
100
AcDbEntity
8
0
100
AcDbPolyline
90
4
70
1
43
0.0
10
3.7508352775855398
20
3.9959406170719478
10
3.7508352775855398
20
3.2459406170719483
10
3.5248352775855398
20
3.2459406170719483
10
3.5248352775855398
20
3.9959406170719478
0
LWPOLYLINE
5
113
100
AcDbEntity
8
0
100
AcDbPolyline
90
6
70
1
43
0.0
10
5.7335218418888223
20
2.2441669304623337
10
5.0537910016113363
20
2.5611306267678575
10
5.1493027287647344
20
2.7659561866381392
42
0.61803398874989568
10
5.1034992810982933
20
4.4423815634986363
42
-0.99999999999999989
10
5.420462977403818
20
5.1221124037761214
42
-0.53518375848799649
10
5.8290335690422186
20
2.4489924903326155
0
LWPOLYLINE
5
114
100
AcDbEntity
8
0
100
AcDbPolyline
90
6
70
1
43
0.0
10
2.5489754548633923
20
3.1050747898611788
42
-0.61803398874989568
10
3.2159514122769486
20
4.6437895367302122
10
3.3890774564218362
20
4.7890595365193676
10
2.9069867491569359
20
5.3635928688585954
10
2.73386070501205
20
5.2183228690694383
42
0.53518375848799626
10
1.9744421225241642
20
2.6229840825962816
42
0.99999999999999989
0
LWPOLYLINE
5
115
100
AcDbEntity
8
0
100
AcDbPolyline
90
24
70
1
43
0.0
10
0.7410905679122094
20
5.7905814874751309
10
0.83431124626098241
20
5.515154718390856
42
0.0091193854435208405
10
0.82884006999534288
20
5.5056783631216115
10
0.54370315191170515
20
5.4486964541875267
42
0.81993212106013824
10
0.54370315191170515
20
5.2721865210901386
10
0.82884006999534288
20
5.2152046121560547
42
0.0091193854435238832
10
0.83431124626097541
20
5.2057282568868022
10
0.74109056791221217
20
4.9303014878025442
42
0.81993212106025659
10
0.89395265399484714
20
4.8420465212538506
10
1.0858688937297034
20
5.0604913814040229
42
0.0091193854435238832
10
1.0968112462609811
20
5.060491381404022
10
1.2887274859958431
20
4.8420465212538399
42
0.81993212106006541
10
1.4415895720784808
20
4.9303014878025131
10
1.3483688937297091
20
5.2057282568868013
42
0.0091193854435246448
10
1.3538400699953446
20
5.2152046121560538
10
1.6389769880789724
20
5.2721865210901377
42
0.81993212106025115
10
1.6389769880789626
20
5.4486964541875302
10
1.3538400699953446
20
5.5056783631216115
42
0.0091193854435208405
10
1.3483688937297007
20
5.5151547183908551
10
1.4415895720784682
20
5.7905814874751149
42
0.81993212106014735
10
1.2887274859958571
20
5.8788364540238405
10
1.0968112462609769
20
5.6603915938736309
42
0.0091193854435185559
10
1.0858688937297063
20
5.6603915938736336
10
0.89395265399482893
20
5.878836454023836
42
0.81993212106008917
0
CIRCLE
5
116
100
AcDbEntity
8
0
100
AcDbCircle
10
1.0913400699953415
20
5.3604414876388331
30
0
40
0.99999999999999956
0
CIRCLE
5
117
100
AcDbEntity
8
0
100
AcDbCircle
10
0.50418187505738599
20
3.3482305462435917
30
0
40
0.99999999999999956
0
CIRCLE
5
118
100
AcDbEntity
8
0
100
AcDbCircle
10
0.50418187505738599
20
3.3482305462435917
30
0
40
0.099999999999999811
0
CIRCLE
5
119
100
AcDbEntity
8
0
100
AcDbCircle
10
7.5808286002021328
20
3.5278490400268594
30
0
40
0.099999999999999811
0
LWPOLYLINE
5
120
100
AcDbEntity
8
0
100
AcDbPolyline
90
4
70
1
43
0.0
10
3.5248352775855398
20
3.2459406170719483
10
3.5248352775855398
20
3.9959406170719478
10
3.7508352775855398
20
3.9959406170719478
10
3.7508352775855398
20
3.2459406170719483
0
LWPOLYLINE
5
121
100
AcDbEntity
8
0
100
AcDbPolyline
90
4
70
1
43
0.0
10
8.5808286002021319
20
3.5278490400268594
42
-0.99999999999999989
10
6.5808286002021337
20
3.5278490400268594
10
6.5808286002021337
20
5.027849040026859
42
-0.99999999999999989
10
8.5808286002021319
20
5.027849040026859
0
LWPOLYLINE
5
122
100
AcDbEntity
8
0
100
AcDbPolyline
90
5
70
1
43
0.0
10
7.6938286002021323
20
5.527849040026859
10
7.5808286002021328
20
5.527849040026859
10
7.4678286002021332
20
5.527849040026859
10
7.4678286002021332
20
4.777849040026859
10
7.6938286002021323
20
4.777849040026859
0
CIRCLE
5
123
100
AcDbEntity
8
0
100
AcDbCircle
10
0
20
-4.4999999999999991
30
0
40
0.099999999999999992
0
ARC
5
124
100
AcDbEntity
8
0
100
AcDbCircle
10
0
20
-5.6999999999999993
30
0
40
0.50000000000000044
100
AcDbArc
50
90
51
270
0
ARC
5
125
100
AcDbEntity
8
0
100
AcDbCircle
10
0
20
-4.4999999999999991
30
0
40
0.49999999999999978
100
AcDbArc
50
90
51
270
0
LINE
5
126
100
AcDbEntity
8
0
100
AcDbLine
10
7.9999999999999982
20
-5.1999999999999993
30
0
11
0
21
-5.1999999999999993
31
0
0
LINE
5
127
100
AcDbEntity
8
0
100
AcDbLine
10
7.9999999999999982
20
-5.1999999999999993
30
0
11
0
21
-5.1999999999999993
31
0
0
LINE
5
128
100
AcDbEntity
8
0
100
AcDbLine
10
7.9999999999999982
20
-5.1999999999999993
30
0
11
0
21
-5.1999999999999993
31
0
0
CIRCLE
5
129
100
AcDbEntity
8
0
100
AcDbCircle
10
7.9999999999999982
20
-5.6999999999999993
30
0
40
0.099999999999999811
0
LINE
5
130
100
AcDbEntity
8
0
100
AcDbLine
10
7.9999999999999982
20
-3.9999999999999996
30
0
11
0
21
-3.9999999999999996
31
0
0
CIRCLE
5
131
100
AcDbEntity
8
0
100
AcDbCircle
10
7.9999999999999982
20
-4.4999999999999991
30
0
40
0.099999999999999811
0
CIRCLE
5
132
100
AcDbEntity
8
0
100
AcDbCircle
10
7.9999999999999982
20
-4.4999999999999991
30
0
40
0.099999999999999811
0
CIRCLE
5
133
100
AcDbEntity
8
0
100
AcDbCircle
10
7.9999999999999982
20
-4.4999999999999991
30
0
40
0.099999999999999811
0
LINE
5
134
100
AcDbEntity
8
0
100
AcDbLine
10
0
20
-6.1999999999999993
30
0
11
7.9999999999999982
21
-6.1999999999999993
31
0
0
CIRCLE
5
135
100
AcDbEntity
8
0
100
AcDbCircle
10
7.9999999999999982
20
-5.6999999999999993
30
0
40
0.099999999999999811
0
LINE
5
136
100
AcDbEntity
8
0
100
AcDbLine
10
0
20
-4.9999999999999991
30
0
11
7.9999999999999982
21
-4.9999999999999991
31
0
0
CIRCLE
5
137
100
AcDbEntity
8
0
100
AcDbCircle
10
7.9999999999999982
20
-4.4999999999999991
30
0
40
0.099999999999999811
0
CIRCLE
5
138
100
AcDbEntity
8
0
100
AcDbCircle
10
0
20
-4.4999999999999991
30
0
40
0.099999999999999992
0
ARC
5
139
100
AcDbEntity
8
0
100
AcDbCircle
10
0
20
-4.4999999999999991
30
0
40
0.49999999999999978
100
AcDbArc
50
90
51
270
0
CIRCLE
5
140
100
AcDbEntity
8
0
100
AcDbCircle
10
0
20
-5.6999999999999993
30
0
40
0.099999999999999992
0
ARC
5
141
100
AcDbEntity
8
0
100
AcDbCircle
10
0
20
-5.6999999999999993
30
0
40
0.50000000000000044
100
AcDbArc
50
90
51
270
0
LINE
5
142
100
AcDbEntity
8
0
100
AcDbLine
10
0
20
-4.9999999999999991
30
0
11
7.9999999999999982
21
-4.9999999999999991
31
0
0
ARC
5
143
100
AcDbEntity
8
0
100
AcDbCircle
10
0
20
-4.4999999999999991
30
0
40
0.49999999999999978
100
AcDbArc
50
90
51
270
0
CIRCLE
5
144
100
AcDbEntity
8
0
100
AcDbCircle
10
7.9999999999999982
20
-5.6999999999999993
30
0
40
0.099999999999999811
0
CIRCLE
5
145
100
AcDbEntity
8
0
100
AcDbCircle
10
7.9999999999999982
20
-5.6999999999999993
30
0
40
0.099999999999999811
0
CIRCLE
5
146
100
AcDbEntity
8
0
100
AcDbCircle
10
0
20
-5.6999999999999993
30
0
40
0.099999999999999992
0
LINE
5
147
100
AcDbEntity
8
0
100
AcDbLine
10
0
20
-4.9999999999999991
30
0
11
7.9999999999999982
21
-4.9999999999999991
31
0
0
CIRCLE
5
148
100
AcDbEntity
8
0
100
AcDbCircle
10
0
20
-5.6999999999999993
30
0
40
0.099999999999999992
0
ARC
5
149
100
AcDbEntity
8
0
100
AcDbCircle
10
0
20
-4.4999999999999991
30
0
40
0.49999999999999978
100
AcDbArc
50
90
51
270
0
CIRCLE
5
150
100
AcDbEntity
8
0
100
AcDbCircle
10
0
20
-4.4999999999999991
30
0
40
0.099999999999999992
0
CIRCLE
5
151
100
AcDbEntity
8
0
100
AcDbCircle
10
0
20
-5.6999999999999993
30
0
40
0.099999999999999992
0
LINE
5
152
100
AcDbEntity
8
0
100
AcDbLine
10
0
20
-6.1999999999999993
30
0
11
7.9999999999999982
21
-6.1999999999999993
31
0
0
CIRCLE
5
153
100
AcDbEntity
8
0
100
AcDbCircle
10
0
20
-4.4999999999999991
30
0
40
0.099999999999999992
0
LINE
5
154
100
AcDbEntity
8
0
100
AcDbLine
10
0
20
-4.9999999999999991
30
0
11
7.9999999999999982
21
-4.9999999999999991
31
0
0
ARC
5
155
100
AcDbEntity
8
0
100
AcDbCircle
10
0
20
-5.6999999999999993
30
0
40
0.50000000000000044
100
AcDbArc
50
90
51
270
0
ARC
5
156
100
AcDbEntity
8
0
100
AcDbCircle
10
0
20
-5.6999999999999993
30
0
40
0.50000000000000044
100
AcDbArc
50
90
51
270
0
LINE
5
157
100
AcDbEntity
8
0
100
AcDbLine
10
7.9999999999999982
20
-3.9999999999999996
30
0
11
0
21
-3.9999999999999996
31
0
0
LINE
5
158
100
AcDbEntity
8
0
100
AcDbLine
10
0
20
-6.1999999999999993
30
0
11
7.9999999999999982
21
-6.1999999999999993
31
0
0
LINE
5
159
100
AcDbEntity
8
0
100
AcDbLine
10
7.9999999999999982
20
-5.1999999999999993
30
0
11
0
21
-5.1999999999999993
31
0
0
LINE
5
160
100
AcDbEntity
8
0
100
AcDbLine
10
0
20
-6.1999999999999993
30
0
11
7.9999999999999982
21
-6.1999999999999993
31
0
0
LINE
5
161
100
AcDbEntity
8
0
100
AcDbLine
10
7.9999999999999982
20
-3.9999999999999996
30
0
11
0
21
-3.9999999999999996
31
0
0
LINE
5
162
100
AcDbEntity
8
0
100
AcDbLine
10
7.9999999999999982
20
-3.9999999999999996
30
0
11
0
21
-3.9999999999999996
31
0
0
ARC
5
163
100
AcDbEntity
8
0
100
AcDbCircle
10
7.9999999999999982
20
-5.6999999999999993
30
0
40
0.49999999999999978
100
AcDbArc
50
-90
51
90
0
ARC
5
164
100
AcDbEntity
8
0
100
AcDbCircle
10
7.9999999999999982
20
-4.4999999999999991
30
0
40
0.49999999999999978
100
AcDbArc
50
-90
51
90
0
ARC
5
165
100
AcDbEntity
8
0
100
AcDbCircle
10
7.9999999999999982
20
-5.6999999999999993
30
0
40
0.49999999999999978
100
AcDbArc
50
-90
51
90
0
ARC
5
166
100
AcDbEntity
8
0
100
AcDbCircle
10
7.9999999999999982
20
-5.6999999999999993
30
0
40
0.49999999999999978
100
AcDbArc
50
-90
51
90
0
ARC
5
167
100
AcDbEntity
8
0
100
AcDbCircle
10
7.9999999999999982
20
-4.4999999999999991
30
0
40
0.49999999999999978
100
AcDbArc
50
-90
51
90
0
ARC
5
168
100
AcDbEntity
8
0
100
AcDbCircle
10
7.9999999999999982
20
-5.6999999999999993
30
0
40
0.49999999999999978
100
AcDbArc
50
-90
51
90
0
ARC
5
169
100
AcDbEntity
8
0
100
AcDbCircle
10
7.9999999999999982
20
-4.4999999999999991
30
0
40
0.49999999999999978
100
AcDbArc
50
-90
51
90
0
ARC
5
170
100
AcDbEntity
8
0
100
AcDbCircle
10
7.9999999999999982
20
-4.4999999999999991
30
0
40
0.49999999999999978
100
AcDbArc
50
-90
51
90
0
LINE
5
171
100
AcDbEntity
8
0
100
AcDbLine
10
6.6108115122535178
20
6.682864508269315
30
0
11
6.8368115122535169
21
6.682864508269315
31
0
0
LINE
5
172
100
AcDbEntity
8
0
100
AcDbLine
10
6.8368115122535169
20
5.932864508269315
30
0
11
6.6108115122535178
21
5.932864508269315
31
0
0
LINE
5
173
100
AcDbEntity
8
0
100
AcDbLine
10
6.6108115122535178
20
5.932864508269315
30
0
11
6.6108115122535178
21
6.682864508269315
31
0
0
ARC
5
174
100
AcDbEntity
8
0
100
AcDbCircle
10
7.5868115122535169
20
5.8280089177521024
30
0
40
1.1372238480785271
100
AcDbArc
50
48.738190450427084
51
77.678547606591948
0
ARC
5
175
100
AcDbEntity
8
0
100
AcDbCircle
10
7.5868115122535169
20
5.0780089177521051
30
0
40
1.1372238480785231
100
AcDbArc
50
48.738190450427055
51
81.398363156240393
0
LINE
5
176
100
AcDbEntity
8
0
100
AcDbLine
10
8.5628115122535124
20
5.932864508269315
30
0
11
8.3368115122535151
21
5.932864508269315
31
0
0
LINE
5
177
100
AcDbEntity
8
0
100
AcDbLine
10
8.3368115122535151
20
6.682864508269315
30
0
11
8.5628115122535124
21
6.682864508269315
31
0
0
LINE
5
178
100
AcDbEntity
8
0
100
AcDbLine
10
8.5628115122535124
20
6.682864508269315
30
0
11
8.5628115122535124
21
5.932864508269315
31
0
0
LINE
5
179
100
AcDbEntity
8
0
100
AcDbLine
10
7.5868115122535142
20
6.4001918173049361
30
0
11
7.5868115122535169
21
6.7436445119745647
31
0
0
ARC
5
180
100
AcDbEntity
8
0
100
AcDbCircle
10
7.5868115122535169
20
5.8280089177521024
30
0
40
1.1372238480785293
100
AcDbArc
50
102.32145239340809
51
131.26180954957292
0
ARC
5
181
100
AcDbEntity
8
0
100
AcDbCircle
10
7.5868115122535169
20
5.0780089177521051
30
0
40
1.1372238480785213
100
AcDbArc
50
98.601636843759891
51
131.261809549573
0
ARC
5
182
100
AcDbEntity
8
0
100
AcDbCircle
10
7.786811512253518
20
6.4001918173049388
30
0
40
0.20000000000000384
100
AcDbArc
50
180
51
261.39836315623927
0
ARC
5
183
100
AcDbEntity
8
0
100
AcDbCircle
10
7.7868115122535206
20
6.7436445119745621
30
0
40
0.20000000000000479
100
AcDbArc
50
77.67854760659317
51
180
0
LINE
5
184
100
AcDbEntity
8
0
100
AcDbLine
10
7.5868115122535169
20
6.5719181646397518
30
0
11
7.5868115122535142
21
6.4001918173049352
31
0
0
ARC
5
185
100
AcDbEntity
8
0
100
AcDbCircle
10
7.3868115122535132
20
6.7436445119745629
30
0
40
0.20000000000000384
100
AcDbArc
50
0
51
102.32145239340714
0
ARC
5
186
100
AcDbEntity
8
0
100
AcDbCircle
10
7.3868115122535078
20
6.4001918173049388
30
0
40
0.20000000000000553
100
AcDbArc
50
278.60163684376141
51
360
0
LINE
5
187
100
AcDbEntity
8
0
100
AcDbLine
10
7.5868115122535169
20
6.7436445119745647
30
0
11
7.5868115122535169
21
6.5719181646397518
31
0
0
CIRCLE
5
188
100
AcDbEntity
8
0
100
AcDbCircle
10
7.9368115122535183
20
6.7436445119745621
30
0
40
0.060000000000000622
0
CIRCLE
5
189
100
AcDbEntity
8
0
100
AcDbCircle
10
7.786811512253518
20
6.5719181646397491
30
0
40
0.060000000000000032
0
CIRCLE
5
190
100
AcDbEntity
8
0
100
AcDbCircle
10
7.9362767863788939
20
6.3855766054321155
30
0
40
0.060000000000000032
0
CIRCLE
5
191
100
AcDbEntity
8
0
100
AcDbCircle
10
7.3868115122535158
20
6.5719181646397518
30
0
40
0.060000000000000393
0
CIRCLE
5
192
100
AcDbEntity
8
0
100
AcDbCircle
10
7.2368115122535182
20
6.7436445119745674
30
0
40
0.060000000000000733
0
CIRCLE
5
193
100
AcDbEntity
8
0
100
AcDbCircle
10
7.2362767863788946
20
6.3855766054321155
30
0
40
0.06000000000000022
0
CIRCLE
5
194
100
AcDbEntity
8
0
100
AcDbCircle
10
7.9368115122535183
20
6.7436445119745621
30
0
40
0.060000000000000622
0
CIRCLE
5
195
100
AcDbEntity
8
0
100
AcDbCircle
10
7.786811512253518
20
6.5719181646397491
30
0
40
0.060000000000000032
0
CIRCLE
5
196
100
AcDbEntity
8
0
100
AcDbCircle
10
7.9362767863788939
20
6.3855766054321155
30
0
40
0.060000000000000032
0
CIRCLE
5
197
100
AcDbEntity
8
0
100
AcDbCircle
10
9.8085903066737128
20
-4.5075007802664766
30
0
40
0.060000000000000622
0
LWPOLYLINE
5
198
100
AcDbEntity
8
0
100
AcDbPolyline
90
8
70
1
43
0.0
10
9.1609375633432588
20
-5.0755567987740875
42
-0.13318967572781765
10
9.7562430500041657
20
-5.0755567987740866
42
0.49408481370660784
10
10.008590306673705
20
-4.8825289129151441
10
10.008590306673705
20
-4.5537178668603469
42
0.30607359863920297
10
9.8832789737872329
20
-4.3681872682928766
42
0.1937295441426797
10
9.0339016395601845
20
-4.3681872682928784
42
0.30607359863918832
10
8.908590306673716
20
-4.5537178668603495
10
8.908590306673716
20
-4.8825289129151468
42
0.49408481370660429
0
CIRCLE
5
199
100
AcDbEntity
8
0
100
AcDbCircle
10
9.6585903066737124
20
-4.6792271276012896
30
0
40
0.060000000000000032
0
LWPOLYLINE
5
200
100
AcDbEntity
8
0
100
AcDbPolyline
90
8
70
1
43
0.0
10
10.008590306673705
20
-5.6825289129151386
42
-0.49408481370660756
10
9.7562430500041657
20
-5.8755567987740811
42
0.1331896757278177
10
9.1609375633432588
20
-5.8755567987740838
42
-0.49408481370660401
10
8.908590306673716
20
-5.6825289129151413
10
8.9085903066737178
20
-5.3537178668603449
42
-0.30607359863918865
10
9.0339016395601845
20
-5.1681872682928747
42
-0.19372954414267976
10
9.8832789737872329
20
-5.168187268292872
42
-0.3060735986392033
10
10.008590306673705
20
-5.3537178668603422
0
CIRCLE
5
201
100
AcDbEntity
8
0
100
AcDbCircle
10
9.6585903066737124
20
-4.6792271276012896
30
0
40
0.060000000000000032
0
CIRCLE
5
202
100
AcDbEntity
8
0
100
AcDbCircle
10
9.2585903066737121
20
-4.6792271276012869
30
0
40
0.060000000000000393
0
CIRCLE
5
203
100
AcDbEntity
8
0
100
AcDbCircle
10
9.8080555807990919
20
-4.8655686868089232
30
0
40
0.060000000000000032
0
CIRCLE
5
204
100
AcDbEntity
8
0
100
AcDbCircle
10
9.8080555807990919
20
-4.8655686868089232
30
0
40
0.060000000000000032
0
CIRCLE
5
205
100
AcDbEntity
8
0
100
AcDbCircle
10
9.1080555807990926
20
-4.8655686868089232
30
0
40
0.06000000000000022
0
CIRCLE
5
206
100
AcDbEntity
8
0
100
AcDbCircle
10
9.8080555807990919
20
-5.6655686868089168
30
0
40
0.060000000000000032
0
CIRCLE
5
207
100
AcDbEntity
8
0
100
AcDbCircle
10
9.8085903066737128
20
-5.307500780266472
30
0
40
0.060000000000000622
0
CIRCLE
5
208
100
AcDbEntity
8
0
100
AcDbCircle
10
9.8080555807990919
20
-5.6655686868089168
30
0
40
0.060000000000000032
0
CIRCLE
5
209
100
AcDbEntity
8
0
100
AcDbCircle
10
9.6585903066737124
20
-5.4792271276012832
30
0
40
0.060000000000000032
0
CIRCLE
5
210
100
AcDbEntity
8
0
100
AcDbCircle
10
9.1085903066737171
20
-4.5075007802664722
30
0
40
0.060000000000000733
0
CIRCLE
5
211
100
AcDbEntity
8
0
100
AcDbCircle
10
9.1085903066737171
20
-5.3075007802664675
30
0
40
0.060000000000000733
0
CIRCLE
5
212
100
AcDbEntity
8
0
100
AcDbCircle
10
9.1080555807990926
20
-5.6655686868089177
30
0
40
0.06000000000000022
0
CIRCLE
5
213
100
AcDbEntity
8
0
100
AcDbCircle
10
9.8085903066737128
20
-5.307500780266472
30
0
40
0.060000000000000622
0
CIRCLE
5
214
100
AcDbEntity
8
0
100
AcDbCircle
10
9.6585903066737124
20
-5.4792271276012832
30
0
40
0.060000000000000032
0
CIRCLE
5
215
100
AcDbEntity
8
0
100
AcDbCircle
10
9.2585903066737121
20
-5.4792271276012805
30
0
40
0.060000000000000393
0
CIRCLE
5
216
100
AcDbEntity
8
0
100
AcDbCircle
10
9.8085903066737128
20
-4.5075007802664766
30
0
40
0.060000000000000622
0
LWPOLYLINE
5
217
100
AcDbEntity
8
0
100
AcDbPolyline
90
4
70
1
43
0.0
10
6.5808286002021337
20
5.027849040026859
10
6.5808286002021337
20
3.5278490400268594
42
0.99999999999999989
10
8.5808286002021319
20
3.5278490400268594
10
8.5808286002021319
20
5.027849040026859
42
0.99999999999999989
0
LWPOLYLINE
5
218
100
AcDbEntity
8
0
100
AcDbPolyline
90
5
70
1
43
0.0
10
7.6938286002021323
20
5.527849040026859
10
7.5808286002021328
20
5.527849040026859
10
7.4678286002021332
20
5.527849040026859
10
7.4678286002021332
20
4.777849040026859
10
7.6938286002021323
20
4.777849040026859
0
CIRCLE
5
219
100
AcDbEntity
8
0
100
AcDbCircle
10
7.5808286002021328
20
3.5278490400268594
30
0
40
0.099999999999999811
0
LWPOLYLINE
5
220
100
AcDbEntity
8
0
100
AcDbPolyline
90
6
70
1
43
0.0
10
8.780828600202133
20
5.027849040026859
42
-0.99999999999999989
10
10.780828600202133
20
5.027849040026859
10
10.780828600202133
20
2.2778489889639828
10
10.780828600202131
20
1.7778489889639877
42
-0.99707305808771429
10
8.780828600202133
20
1.7837114649262038
10
8.780828600202133
20
2.2837114649262036
0
LWPOLYLINE
5
221
100
AcDbEntity
8
0
100
AcDbPolyline
90
5
70
1
43
0.0
10
9.8938286002021325
20
5.527849040026859
10
9.780828600202133
20
5.527849040026859
10
9.6678286002021334
20
5.527849040026859
10
9.6678286002021334
20
4.777849040026859
10
9.8938286002021325
20
4.777849040026859
0
LWPOLYLINE
5
222
100
AcDbEntity
8
0
100
AcDbPolyline
90
4
70
1
43
0.0
10
10.180828612967852
20
3.877849040026859
10
9.3808285874364135
20
3.877849040026859
10
9.3808285874364135
20
2.2778489889639828
10
10.180828612967852
20
2.2778489889639828
0
CIRCLE
5
223
100
AcDbEntity
8
0
100
AcDbCircle
10
10.180837192358235
20
1.4087114649262042
30
0
40
0.060000000000000032
0
CIRCLE
5
224
100
AcDbEntity
8
0
100
AcDbCircle
10
9.7808371923582342
20
1.0337114649262042
30
0
40
0.060000000000000032
0
CIRCLE
5
225
100
AcDbEntity
8
0
100
AcDbCircle
10
9.3808371923582357
20
1.4087114649262042
30
0
40
0.060000000000000782
0
CIRCLE
5
226
100
AcDbEntity
8
0
100
AcDbCircle
10
9.7808371923582342
20
1.7837114649262042
30
0
40
0.059999999999999901
0
CIRCLE
5
227
100
AcDbEntity
8
0
100
AcDbCircle
10
9.6058285874364149
20
4.027849040026859
30
0
40
0.060000000000000032
0
CIRCLE
5
228
100
AcDbEntity
8
0
100
AcDbCircle
10
9.9558286129678528
20
4.027849040026859
30
0
40
0.060000000000000032
0
CIRCLE
5
229
100
AcDbEntity
8
0
100
AcDbCircle
10
9.6058285874364149
20
2.1278489889639829
30
0
40
0.059999999999999581
0
CIRCLE
5
230
100
AcDbEntity
8
0
100
AcDbCircle
10
9.9558286129678528
20
2.1278489889639829
30
0
40
0.059999999999998818
0
ARC
5
231
100
AcDbEntity
8
0
100
AcDbCircle
10
11.837395182622547
20
10.123283718216314
30
0
40
0.75000000000000033
100
AcDbArc
50
90
51
180
0
ARC
5
232
100
AcDbEntity
8
0
100
AcDbCircle
10
11.837395182622547
20
10.123283718216314
30
0
40
0.75000000000000033
100
AcDbArc
50
0
51
90
0
CIRCLE
5
233
100
AcDbEntity
8
0
100
AcDbCircle
10
11.437395182622549
20
10.348283718216313
30
0
40
0.060000000000000782
0
CIRCLE
5
234
100
AcDbEntity
8
0
100
AcDbCircle
10
11.837395182622547
20
9.9732837182163134
30
0
40
0.060000000000000032
0
CIRCLE
5
235
100
AcDbEntity
8
0
100
AcDbCircle
10
12.237395182622548
20
10.348283718216313
30
0
40
0.060000000000000032
0
CIRCLE
5
236
100
AcDbEntity
8
0
100
AcDbCircle
10
11.837395182622547
20
10.723283718216313
30
0
40
0.059999999999999901
0
LINE
5
237
100
AcDbEntity
8
0
100
AcDbLine
10
12.587395182622547
20
10.123283718216314
30
0
11
12.587395182622547
21
0.87328371821631467
31
0
0
LINE
5
238
100
AcDbEntity
8
0
100
AcDbLine
10
11.087395182622547
20
0.87328371821631467
30
0
11
11.087395182622547
21
10.123283718216314
31
0
0
LINE
5
239
100
AcDbEntity
8
0
100
AcDbLine
10
15.454545894826619
20
-0.93608980567873767
30
0
11
15.454545894826619
21
-0.93608980567873767
31
0
0
LWPOLYLINE
5
240
100
AcDbEntity
8
0
100
AcDbPolyline
90
7
70
1
43
0.0
10
17.356983510857649
20
1.0382819192161974
10
17.356983510857649
20
4.6433865244474015
42
0.34199871311964924
10
16.606983510857646
20
5.6116323609992556
10
16.606983510857649
20
4.6649314774331394
42
-0.41421356237308998
10
16.406983510857646
20
4.4649314774331383
10
16.356983510857642
20
4.4649314774331383
10
16.356983510857642
20
1.0382819192161974
0
LWPOLYLINE
5
241
100
AcDbEntity
8
0
100
AcDbPolyline
90
6
70
1
43
0.0
10
1.026745986391822
20
-8.5461200602184633
10
1.026745986391822
20
-7.2961200602184633
42
0.99999999999999989
10
-0.47325401360817881
20
-7.2961200602184633
10
-0.47325401360817598
20
-8.5461200602184633
10
-0.47325401360817881
20
-9.7961200602184633
42
0.99999999999999989
10
1.026745986391822
20
-9.7961200602184633
0
CIRCLE
5
242
100
AcDbEntity
8
0
100
AcDbCircle
10
0.27674598639182157
20
-7.2961200602184633
30
0
40
0.060000000000000032
0
CIRCLE
5
243
100
AcDbEntity
8
0
100
AcDbCircle
10
0.27674598639182157
20
-9.7961200602184633
30
0
40
0.059999999999999346
0
CIRCLE
5
244
100
AcDbEntity
8
0
100
AcDbCircle
10
-0.098254013608178606
20
-9.171120060218465
30
0
40
0.060000000000000032
0
CIRCLE
5
245
100
AcDbEntity
8
0
100
AcDbCircle
10
0.6517459863918218
20
-9.1711200602184633
30
0
40
0.060000000000000032
0
CIRCLE
5
246
100
AcDbEntity
8
0
100
AcDbCircle
10
-0.098254013608178606
20
-7.9211200602184615
30
0
40
0.060000000000000032
0
CIRCLE
5
247
100
AcDbEntity
8
0
100
AcDbCircle
10
0.6517459863918218
20
-7.9211200602184624
30
0
40
0.060000000000000032
0
LINE
5
248
100
AcDbEntity
8
0
100
AcDbLine
10
11.087395182622551
20
0.87328371821631467
30
0
11
12.587395182622547
21
0.87328371821631467
31
0
0
CIRCLE
5
249
100
AcDbEntity
8
0
100
AcDbCircle
10
11.837395182622547
20
2.1232837182163147
30
0
40
0.060000000000000032
0
CIRCLE
5
250
100
AcDbEntity
8
0
100
AcDbCircle
10
11.462395182622547
20
1.4982837182163169
30
0
40
0.060000000000000032
0
CIRCLE
5
251
100
AcDbEntity
8
0
100
AcDbCircle
10
12.212395182622547
20
1.4982837182163156
30
0
40
0.060000000000000032
0
LWPOLYLINE
5
252
100
AcDbEntity
8
0
100
AcDbPolyline
90
6
70
1
43
0.0
10
3.0267459863918211
20
-9.7961200602184633
42
-0.99999999999999989
10
1.5267459863918205
20
-9.7961200602184633
10
1.5267459863918231
20
-8.5461200602184633
10
1.5267459863918205
20
-7.2961200602184633
42
-0.99999999999999989
10
3.0267459863918211
20
-7.2961200602184633
10
3.0267459863918211
20
-8.5461200602184633
0
CIRCLE
5
253
100
AcDbEntity
8
0
100
AcDbCircle
10
2.2767459863918207
20
-7.2961200602184633
30
0
40
0.060000000000000032
0
CIRCLE
5
254
100
AcDbEntity
8
0
100
AcDbCircle
10
2.2767459863918207
20
-9.7961200602184633
30
0
40
0.059999999999999346
0
CIRCLE
5
255
100
AcDbEntity
8
0
100
AcDbCircle
10
1.9017459863918205
20
-7.9211200602184615
30
0
40
0.060000000000000032
0
CIRCLE
5
256
100
AcDbEntity
8
0
100
AcDbCircle
10
2.6517459863918211
20
-9.1711200602184633
30
0
40
0.060000000000000032
0
CIRCLE
5
257
100
AcDbEntity
8
0
100
AcDbCircle
10
1.9017459863918205
20
-9.171120060218465
30
0
40
0.060000000000000032
0
CIRCLE
5
258
100
AcDbEntity
8
0
100
AcDbCircle
10
2.6517459863918211
20
-7.9211200602184624
30
0
40
0.060000000000000032
0
LWPOLYLINE
5
259
100
AcDbEntity
8
0
100
AcDbPolyline
90
12
70
1
43
0.0
10
17.879923122055139
20
3.990726765165546
10
17.879923122055139
20
0.99072676516555025
10
19.379923122055136
20
0.99072676516555025
10
19.379923122055139
20
3.990726765165546
42
0.1628390411960236
10
16.87992312205515
20
10.990726765165517
10
15.37992312205515
20
10.990726765165515
42
0.12171650080848656
10
12.879923122055155
20
3.9907267651655491
10
12.87992312205516
20
0.99072676516555314
10
14.379923122055157
20
0.99072676516555025
10
14.379923122055153
20
3.9907267651655447
42
-0.12310562561766081
10
15.379923122055148
20
7.9907267651655305
10
16.87992312205515
20
7.9907267651655278
42
-0.1231056256176616
0
CIRCLE
5
260
100
AcDbEntity
8
0
100
AcDbCircle
10
16.129923122055146
20
9.7407267651655172
30
0
40
0.059999999999999346
0
CIRCLE
5
261
100
AcDbEntity
8
0
100
AcDbCircle
10
16.50492312205515
20
10.365726765165517
30
0
40
0.060000000000000032
0
CIRCLE
5
262
100
AcDbEntity
8
0
100
AcDbCircle
10
15.754923122055148
20
10.365726765165515
30
0
40
0.060000000000000032
0
LINE
5
263
100
AcDbEntity
8
0
100
AcDbLine
10
28.536947048371719
20
-9.1152647149070685
30
0
11
28.536947048371719
21
-9.1152647149070685
31
0
0
CIRCLE
5
264
100
AcDbEntity
8
0
100
AcDbCircle
10
11.837395182622547
20
2.1232837182163147
30
0
40
0.060000000000000032
0
CIRCLE
5
265
100
AcDbEntity
8
0
100
AcDbCircle
10
12.237395182622548
20
10.348283718216313
30
0
40
0.060000000000000032
0
LINE
5
266
100
AcDbEntity
8
0
100
AcDbLine
10
11.087395182622547
20
0.87328371821631467
30
0
11
11.087395182622547
21
10.123283718216314
31
0
0
LINE
5
267
100
AcDbEntity
8
0
100
AcDbLine
10
11.087395182622551
20
0.87328371821631467
30
0
11
12.587395182622547
21
0.87328371821631467
31
0
0
CIRCLE
5
268
100
AcDbEntity
8
0
100
AcDbCircle
10
12.212395182622547
20
1.4982837182163156
30
0
40
0.060000000000000032
0
LINE
5
269
100
AcDbEntity
8
0
100
AcDbLine
10
12.587395182622547
20
10.123283718216314
30
0
11
12.587395182622547
21
0.87328371821631467
31
0
0
CIRCLE
5
270
100
AcDbEntity
8
0
100
AcDbCircle
10
11.462395182622547
20
1.4982837182163169
30
0
40
0.060000000000000032
0
CIRCLE
5
271
100
AcDbEntity
8
0
100
AcDbCircle
10
11.837395182622547
20
9.9732837182163134
30
0
40
0.060000000000000032
0
CIRCLE
5
272
100
AcDbEntity
8
0
100
AcDbCircle
10
11.837395182622547
20
10.723283718216313
30
0
40
0.059999999999999901
0
CIRCLE
5
273
100
AcDbEntity
8
0
100
AcDbCircle
10
11.437395182622549
20
10.348283718216313
30
0
40
0.060000000000000782
0
ARC
5
274
100
AcDbEntity
8
0
100
AcDbCircle
10
11.837395182622547
20
10.123283718216314
30
0
40
0.75000000000000033
100
AcDbArc
50
0
51
90
0
ARC
5
275
100
AcDbEntity
8
0
100
AcDbCircle
10
11.837395182622547
20
10.123283718216314
30
0
40
0.75000000000000033
100
AcDbArc
50
90
51
180
0
LINE
5
276
100
AcDbEntity
8
0
100
AcDbLine
10
15.454545894826619
20
-0.93608980567873767
30
0
11
15.454545894826619
21
-0.93608980567873767
31
0
0
LWPOLYLINE
5
277
100
AcDbEntity
8
0
100
AcDbPolyline
90
11
70
1
43
0.0
10
20.579935888296738
20
0.94832598541198365
10
19.579935888296742
20
0.94832598541198365
10
19.579935888296742
20
4.932448903687912
10
19.729935888296744
20
4.932448903687912
42
0.41421356237309664
10
19.97993588829674
20
5.1824489036879102
10
19.97993588829674
20
6.9324489036879129
10
19.97993588829674
20
8.6824489036879129
42
0.41421356237307699
10
19.729935888296744
20
8.9324489036879129
10
19.579935888296742
20
8.9324489036879111
10
19.579935888296742
20
12.359098461904853
10
20.579935888296738
20
12.359098461904853
0
LINE
5
278
100
AcDbEntity
8
0
100
AcDbLine
10
17.454545894826619
20
-0.93608980567873767
30
0
11
17.454545894826619
21
-0.93608980567873767
31
0
0
LINE
5
279
100
AcDbEntity
8
0
100
AcDbLine
10
17.454545894826619
20
-0.93608980567873767
30
0
11
17.454545894826619
21
-0.93608980567873767
31
0
0
LWPOLYLINE
5
280
100
AcDbEntity
8
0
100
AcDbPolyline
90
4
70
1
43
0.0
10
14.784559712836412
20
1.0435447707674661
10
15.784559712836408
20
1.0435447707674661
10
15.784559712836408
20
5.0276676890433949
10
14.784559712836412
20
5.0276676890433949
0
CIRCLE
5
281
100
AcDbEntity
8
0
100
AcDbCircle
10
16.856983510857646
20
1.6382819192161975
30
0
40
0.060000000000000032
0
CIRCLE
5
282
100
AcDbEntity
8
0
100
AcDbCircle
10
16.856983510857646
20
1.3382819192161977
30
0
40
0.060000000000000032
0
CIRCLE
5
283
100
AcDbEntity
8
0
100
AcDbCircle
10
15.28455971283641
20
4.4276676890433944
30
0
40
0.060000000000000032
0
CIRCLE
5
284
100
AcDbEntity
8
0
100
AcDbCircle
10
15.28455971283641
20
4.7276676890433942
30
0
40
0.060000000000000032
0
CIRCLE
5
285
100
AcDbEntity
8
0
100
AcDbCircle
10
20.079935888296742
20
1.2483259854119839
30
0
40
0.060000000000000032
0
CIRCLE
5
286
100
AcDbEntity
8
0
100
AcDbCircle
10
20.079935888296742
20
1.5483259854119837
30
0
40
0.060000000000000032
0
CIRCLE
5
287
100
AcDbEntity
8
0
100
AcDbCircle
10
20.079935888296742
20
12.059098461904853
30
0
40
0.060000000000000032
0
CIRCLE
5
288
100
AcDbEntity
8
0
100
AcDbCircle
10
20.079935888296742
20
11.759098461904852
30
0
40
0.060000000000000032
0
LWPOLYLINE
5
289
100
AcDbEntity
8
0
100
AcDbPolyline
90
8
70
1
43
0.0
10
11.43315572853475
20
-4.2180873998903365
10
11.033155728534748
20
-4.2180873998903365
42
0.41421356237309503
10
10.733155728534747
20
-4.5180873998903364
10
10.733155728534747
20
-5.9180873998903358
42
0.41421356237309503
10
11.033155728534748
20
-6.2180873998903357
10
11.43315572853475
20
-6.2180873998903357
42
0.41421356237309642
10
11.733155728534749
20
-5.9180873998903341
10
11.733155728534744
20
-4.5180873998903364
42
0.41421356237308959
0
CIRCLE
5
290
100
AcDbEntity
8
0
100
AcDbCircle
10
11.233155728534745
20
-4.618087399890336
30
0
40
0.060000000000000032
0
CIRCLE
5
291
100
AcDbEntity
8
0
100
AcDbCircle
10
11.233155728534745
20
-4.9180873998903358
30
0
40
0.060000000000000032
0
CIRCLE
5
292
100
AcDbEntity
8
0
100
AcDbCircle
10
11.233155728534745
20
-5.5180873998903364
30
0
40
0.059999999999999547
0
CIRCLE
5
293
100
AcDbEntity
8
0
100
AcDbCircle
10
11.233155728534745
20
-5.8180873998903362
30
0
40
0.060000000000000032
0
LWPOLYLINE
5
294
100
AcDbEntity
8
0
100
AcDbPolyline
90
8
70
1
43
0.0
10
12.833155728534749
20
-5.9180873998903341
10
12.833155728534743
20
-4.5180873998903364
42
0.41421356237308959
10
12.533155728534748
20
-4.2180873998903365
10
12.133155728534746
20
-4.2180873998903365
42
0.41421356237309503
10
11.833155728534745
20
-4.5180873998903364
10
11.833155728534745
20
-5.9180873998903358
42
0.41421356237309503
10
12.133155728534746
20
-6.2180873998903357
10
12.533155728534748
20
-6.2180873998903357
42
0.41421356237309642
0
CIRCLE
5
295
100
AcDbEntity
8
0
100
AcDbCircle
10
12.333155728534743
20
-4.618087399890336
30
0
40
0.060000000000000032
0
CIRCLE
5
296
100
AcDbEntity
8
0
100
AcDbCircle
10
12.333155728534743
20
-5.8180873998903362
30
0
40
0.060000000000000032
0
CIRCLE
5
297
100
AcDbEntity
8
0
100
AcDbCircle
10
12.333155728534743
20
-5.5180873998903364
30
0
40
0.059999999999999547
0
CIRCLE
5
298
100
AcDbEntity
8
0
100
AcDbCircle
10
12.333155728534743
20
-4.9180873998903358
30
0
40
0.060000000000000032
0
LWPOLYLINE
5
299
100
AcDbEntity
8
0
100
AcDbPolyline
90
8
70
1
43
0.0
10
13.933155728534746
20
-5.9180873998903341
10
13.933155728534741
20
-4.5180873998903364
42
0.41421356237308959
10
13.633155728534746
20
-4.2180873998903365
10
13.233155728534745
20
-4.2180873998903365
42
0.41421356237309503
10
12.933155728534745
20
-4.5180873998903364
10
12.933155728534745
20
-5.9180873998903358
42
0.41421356237309503
10
13.233155728534745
20
-6.2180873998903357
10
13.633155728534746
20
-6.2180873998903357
42
0.41421356237309642
0
CIRCLE
5
300
100
AcDbEntity
8
0
100
AcDbCircle
10
13.433155728534743
20
-4.618087399890336
30
0
40
0.060000000000000032
0
CIRCLE
5
301
100
AcDbEntity
8
0
100
AcDbCircle
10
13.433155728534743
20
-5.8180873998903362
30
0
40
0.060000000000000032
0
CIRCLE
5
302
100
AcDbEntity
8
0
100
AcDbCircle
10
13.433155728534743
20
-5.5180873998903364
30
0
40
0.059999999999999547
0
CIRCLE
5
303
100
AcDbEntity
8
0
100
AcDbCircle
10
13.433155728534743
20
-4.9180873998903358
30
0
40
0.060000000000000032
0
LINE
5
304
100
AcDbEntity
8
0
100
AcDbLine
10
31.700000724454561
20
8.900000284037251
30
0
11
31.700000724454561
21
7.9000002840372519
31
0
0
LINE
5
305
100
AcDbEntity
8
0
100
AcDbLine
10
22.700000724454561
20
7.9000002840372519
30
0
11
22.700000724454561
21
8.900000284037251
31
0
0
LINE
5
306
100
AcDbEntity
8
0
100
AcDbLine
10
27.250000724454569
20
8.350000284037252
30
0
11
31.600001008491812
21
8.350000284037252
31
0
0
LINE
5
307
100
AcDbEntity
8
0
100
AcDbLine
10
27.150000724454568
20
8.350000284037252
30
0
11
22.800000727645994
21
8.350000284037252
31
0
0
LINE
5
308
100
AcDbEntity
8
0
100
AcDbLine
10
31.700000724454561
20
8.400000284037251
30
0
11
31.700000724454561
21
8.4300002840372468
31
0
0
LINE
5
309
100
AcDbEntity
8
0
100
AcDbLine
10
31.700000724454561
20
8.4300002840372468
30
0
11
29.700000724454561
21
8.4300002840372503
31
0
0
LINE
5
310
100
AcDbEntity
8
0
100
AcDbLine
10
29.600000724454567
20
8.4300002840372503
30
0
11
24.80000072445457
21
8.4300002840372503
31
0
0
LINE
5
311
100
AcDbEntity
8
0
100
AcDbLine
10
24.700000788283159
20
8.4300002840372503
30
0
11
22.700000724454561
21
8.4300002840372503
31
0
0
LINE
5
312
100
AcDbEntity
8
0
100
AcDbLine
10
24.700000788283159
20
8.2700002840372502
30
0
11
22.700000724454561
21
8.2700002840372502
31
0
0
LINE
5
313
100
AcDbEntity
8
0
100
AcDbLine
10
27.150000724454568
20
8.1900002840372519
30
0
11
22.800000727645994
21
8.1900002840372519
31
0
0
LINE
5
314
100
AcDbEntity
8
0
100
AcDbLine
10
29.600000724454567
20
8.2700002840372502
30
0
11
24.80000072445457
21
8.2700002840372502
31
0
0
LINE
5
315
100
AcDbEntity
8
0
100
AcDbLine
10
27.250000724454569
20
8.1900002840372519
30
0
11
31.600001008491812
21
8.1900002840372519
31
0
0
LINE
5
316
100
AcDbEntity
8
0
100
AcDbLine
10
31.700000724454561
20
8.2700002840372502
30
0
11
29.700000724454561
21
8.2700002840372502
31
0
0
LINE
5
317
100
AcDbEntity
8
0
100
AcDbLine
10
24.700000788283159
20
8.5900002840372522
30
0
11
22.700000724454561
21
8.5900002840372522
31
0
0
LINE
5
318
100
AcDbEntity
8
0
100
AcDbLine
10
27.150000724454568
20
8.5100002840372522
30
0
11
22.800000727645994
21
8.5100002840372522
31
0
0
LINE
5
319
100
AcDbEntity
8
0
100
AcDbLine
10
29.600000724454567
20
8.5900002840372522
30
0
11
24.80000072445457
21
8.5900002840372522
31
0
0
LINE
5
320
100
AcDbEntity
8
0
100
AcDbLine
10
27.250000724454569
20
8.5100002840372522
30
0
11
31.600001008491812
21
8.5100002840372522
31
0
0
LINE
5
321
100
AcDbEntity
8
0
100
AcDbLine
10
31.700000724454561
20
8.5900002840372522
30
0
11
29.700000724454561
21
8.5900002840372522
31
0
0
LINE
5
322
100
AcDbEntity
8
0
100
AcDbLine
10
27.150000724454568
20
8.6700002840372523
30
0
11
22.800000727645994
21
8.6700002840372523
31
0
0
LINE
5
323
100
AcDbEntity
8
0
100
AcDbLine
10
27.250000724454569
20
8.6700002840372523
30
0
11
31.600001008491812
21
8.6700002840372523
31
0
0
LWPOLYLINE
5
324
100
AcDbEntity
8
0
100
AcDbPolyline
90
5
70
1
43
0.0
10
27.313000724454565
20
14.900000284037251
10
27.313000724454554
20
14.150000284037249
42
-0.99999999999999989
10
27.313000724454565
20
13.900000284037253
10
27.087000724454565
20
13.900000284037253
10
27.087000724454565
20
14.900000284037251
0
LWPOLYLINE
5
325
100
AcDbEntity
8
0
100
AcDbPolyline
90
4
70
1
43
0.0
10
25.450000724454561
20
13.900000284037253
10
23.950000724454565
20
13.900000284037253
10
23.950000724454565
20
13.674000284037254
10
25.450000724454561
20
13.674000284037254
0
LWPOLYLINE
5
326
100
AcDbEntity
8
0
100
AcDbPolyline
90
4
70
1
43
0.0
10
28.950000724454561
20
13.900000284037253
10
30.450000724454561
20
13.900000284037253
10
30.450000724454561
20
13.674000284037254
10
28.950000724454561
20
13.674000284037254
0
LWPOLYLINE
5
327
100
AcDbEntity
8
0
100
AcDbPolyline
90
34
70
1
43
0.0
10
33.064601652454812
20
13.304094021634922
10
32.064600048292007
20
13.304094021634922
10
32.064600048292007
20
12.804094021634924
10
32.182710048292009
20
12.804094021634924
10
32.182710048292009
20
11.804094021634924
10
32.064600048292007
20
11.804094021634924
10
32.064600048292007
20
11.304094021634924
10
33.064600048292007
20
11.304094021634924
10
33.064600048292007
20
11.185984021634924
10
34.064600048292014
20
11.185984021634924
10
34.064600048292014
20
11.304094021634924
10
37.064601780112
20
11.304094021634924
10
37.064601780112
20
11.185984021634924
10
38.064601780112007
20
11.185984021634924
10
38.064601780112007
20
11.304094021634924
10
39.064601843940594
20
11.304094021634924
10
39.064601843940594
20
11.185984021634924
10
40.064601843940601
20
11.185984021634924
10
40.064601843940601
20
11.304094021634924
10
41.464306208933316
20
11.304094021634924
10
41.110752818340046
20
11.657647412228194
10
41.194269200265985
20
11.741163794154136
10
40.487162419079418
20
12.448270575340674
10
40.403646037153486
20
12.364754193414738
10
39.634010770101696
20
13.134389460466515
42
0.15663949928364085
10
39.307643999001378
20
13.302084021524742
42
0.040995547932762798
10
39.28317034106859
20
13.304094021634922
10
38.064601652454819
20
13.304094021634922
10
38.064601652454819
20
13.422204021634924
10
37.064601652454812
20
13.422204021634924
10
37.064601652454812
20
13.304094021634922
10
34.064601652454812
20
13.304094021634922
10
34.064601652454812
20
13.422204021634924
10
33.064601652454812
20
13.422204021634924
0
LINE
5
328
100
AcDbEntity
8
0
100
AcDbLine
10
31.700000724454561
20
15.900000284037251
30
0
11
31.700000724454561
21
14.900000284037251
31
0
0
LINE
5
329
100
AcDbEntity
8
0
100
AcDbLine
10
31.700000724454561
20
14.900000284037251
30
0
11
31.58189072445456
21
14.900000284037251
31
0
0
LINE
5
330
100
AcDbEntity
8
0
100
AcDbLine
10
31.58189072445456
20
14.900000284037251
30
0
11
31.58189072445456
21
13.900000284037253
31
0
0
LINE
5
331
100
AcDbEntity
8
0
100
AcDbLine
10
31.58189072445456
20
13.900000284037253
30
0
11
31.700000724454561
21
13.900000284037253
31
0
0
LINE
5
332
100
AcDbEntity
8
0
100
AcDbLine
10
31.700000724454561
20
13.900000284037253
30
0
11
31.700000724454561
21
10.900000284037253
31
0
0
LINE
5
333
100
AcDbEntity
8
0
100
AcDbLine
10
31.700000724454561
20
10.900000284037253
30
0
11
31.58189072445456
21
10.900000284037253
31
0
0
LINE
5
334
100
AcDbEntity
8
0
100
AcDbLine
10
31.58189072445456
20
10.900000284037253
30
0
11
31.58189072445456
21
9.9000002840372527
31
0
0
LINE
5
335
100
AcDbEntity
8
0
100
AcDbLine
10
31.58189072445456
20
9.9000002840372527
30
0
11
31.700000724454561
21
9.9000002840372527
31
0
0
LINE
5
336
100
AcDbEntity
8
0
100
AcDbLine
10
31.700000724454561
20
9.9000002840372527
30
0
11
31.700000724454561
21
8.900000284037251
31
0
0
LINE
5
337
100
AcDbEntity
8
0
100
AcDbLine
10
31.700000724454561
20
5.7340002840372515
30
0
11
22.700000724454561
21
5.7340002840372515
31
0
0
LINE
5
338
100
AcDbEntity
8
0
100
AcDbLine
10
31.700000724454561
20
5.7340002840372515
30
0
11
31.700000724454561
21
6.2340002840372506
31
0
0
LINE
5
339
100
AcDbEntity
8
0
100
AcDbLine
10
31.700000724454561
20
6.2340002840372506
30
0
11
31.58189072445456
21
6.2340002840372506
31
0
0
LINE
5
340
100
AcDbEntity
8
0
100
AcDbLine
10
31.58189072445456
20
6.2340002840372506
30
0
11
31.58189072445456
21
7.2340002840372506
31
0
0
LINE
5
341
100
AcDbEntity
8
0
100
AcDbLine
10
31.58189072445456
20
7.2340002840372506
30
0
11
31.700000724454561
21
7.2340002840372506
31
0
0
LINE
5
342
100
AcDbEntity
8
0
100
AcDbLine
10
31.700000724454561
20
7.2340002840372506
30
0
11
31.700000724454561
21
7.9000002840372519
31
0
0
CIRCLE
5
343
100
AcDbEntity
8
0
100
AcDbCircle
10
30.700000979768944
20
6.8170002840372517
30
0
40
0.24999999999999828
0
CIRCLE
5
344
100
AcDbEntity
8
0
100
AcDbCircle
10
29.700000979768944
20
6.8170002840372517
30
0
40
0.24999999999999797
0
CIRCLE
5
345
100
AcDbEntity
8
0
100
AcDbCircle
10
23.700000724454561
20
6.8170002840372517
30
0
40
0.10000000000000053
0
LWPOLYLINE
5
346
100
AcDbEntity
8
0
100
AcDbPolyline
90
4
70
1
43
0.0
10
28.765483648831253
20
6.3320002840372513
10
26.01548364883125
20
6.3320002840372513
10
26.01548364883125
20
7.3020002840372511
10
28.765483648831253
20
7.3020002840372511
0
CIRCLE
5
347
100
AcDbEntity
8
0
100
AcDbCircle
10
24.900000724454561
20
6.8170002840372517
30
0
40
0.14499999999999905
0
CIRCLE
5
348
100
AcDbEntity
8
0
100
AcDbCircle
10
28.870483648831254
20
7.4220002840372512
30
0
40
0.060000000000000032
0
CIRCLE
5
349
100
AcDbEntity
8
0
100
AcDbCircle
10
25.910483648831253
20
7.4220002840372512
30
0
40
0.060000000000000032
0
CIRCLE
5
350
100
AcDbEntity
8
0
100
AcDbCircle
10
25.910483648831253
20
6.2120002840372512
30
0
40
0.059999999999999241
0
CIRCLE
5
351
100
AcDbEntity
8
0
100
AcDbCircle
10
28.870483648831254
20
6.2120002840372512
30
0
40
0.059999999999998686
0
LWPOLYLINE
5
352
100
AcDbEntity
8
0
100
AcDbPolyline
90
32
70
1
43
0.0
10
41.895774601495702
20
6.3203730385371646
10
50.895774601495695
20
6.3203730385371646
10
50.895774601495695
20
7.7203730385371694
10
50.777664601495701
20
7.7203730385371694
10
50.777664601495701
20
8.7203730385371685
10
50.895774601495695
20
8.7203730385371685
10
50.895774601495695
20
9.7203730385371685
10
50.777664601495701
20
9.7203730385371685
10
50.777664601495701
20
10.720373038537168
10
50.895774601495695
20
10.720373038537168
10
50.895774601495695
20
13.720373038537168
10
50.777664601495701
20
13.720373038537168
10
50.777664601495701
20
14.720373038537168
10
50.895774601495695
20
14.720373038537168
10
50.895774601495695
20
15.720373038537167
10
49.777664601495701
20
15.720373038537167
10
49.777664601495701
20
15.602263038537165
10
43.013884601495711
20
15.602263038537165
10
43.013884601495711
20
15.720373038537167
10
41.895774601495702
20
15.720373038537167
10
41.895774601495702
20
14.720373038537168
10
42.013884601495704
20
14.720373038537168
10
42.013884601495704
20
13.720373038537168
10
41.895774601495702
20
13.720373038537168
10
41.895774601495702
20
10.720373038537168
10
42.013884601495704
20
10.720373038537168
10
42.013884601495704
20
9.7203730385371685
10
41.895774601495702
20
9.7203730385371685
10
41.895774601495702
20
8.7203730385371685
10
42.013884601495704
20
8.7203730385371685
10
42.013884601495704
20
7.7203730385371694
10
41.895774601495702
20
7.7203730385371694
0
LWPOLYLINE
5
353
100
AcDbEntity
8
0
100
AcDbPolyline
90
4
70
1
43
0.0
10
46.508774601495709
20
14.720373038537165
10
46.508774601495709
20
13.720373038537168
10
46.28277460149571
20
13.720373038537168
10
46.28277460149571
20
14.720373038537165
0
LWPOLYLINE
5
354
100
AcDbEntity
8
0
100
AcDbPolyline
90
4
70
1
43
0.0
10
49.645774601495702
20
13.720373038537168
10
49.645774601495702
20
13.494373038537169
10
48.145774601495702
20
13.494373038537169
10
48.145774601495702
20
13.720373038537168
0
LWPOLYLINE
5
355
100
AcDbEntity
8
0
100
AcDbPolyline
90
4
70
1
43
0.0
10
43.14577460149571
20
13.720373038537168
10
43.14577460149571
20
13.494373038537169
10
44.645774601495702
20
13.494373038537169
10
44.645774601495702
20
13.720373038537168
0
LINE
5
356
100
AcDbEntity
8
0
100
AcDbLine
10
22.700000724454561
20
15.900000284037251
30
0
11
22.700000724454561
21
14.900000284037251
31
0
0
LINE
5
357
100
AcDbEntity
8
0
100
AcDbLine
10
22.700000724454561
20
14.900000284037251
30
0
11
22.818110724454563
21
14.900000284037251
31
0
0
LINE
5
358
100
AcDbEntity
8
0
100
AcDbLine
10
22.818110724454563
20
14.900000284037251
30
0
11
22.818110724454563
21
13.900000284037253
31
0
0
LINE
5
359
100
AcDbEntity
8
0
100
AcDbLine
10
22.818110724454563
20
13.900000284037253
30
0
11
22.700000724454561
21
13.900000284037253
31
0
0
LINE
5
360
100
AcDbEntity
8
0
100
AcDbLine
10
22.700000724454561
20
13.900000284037253
30
0
11
22.700000724454561
21
10.900000284037253
31
0
0
LINE
5
361
100
AcDbEntity
8
0
100
AcDbLine
10
22.700000724454561
20
10.900000284037253
30
0
11
22.818110724454563
21
10.900000284037253
31
0
0
LINE
5
362
100
AcDbEntity
8
0
100
AcDbLine
10
22.818110724454563
20
10.900000284037253
30
0
11
22.818110724454563
21
9.9000002840372527
31
0
0
LINE
5
363
100
AcDbEntity
8
0
100
AcDbLine
10
22.818110724454563
20
9.9000002840372527
30
0
11
22.700000724454561
21
9.9000002840372527
31
0
0
LINE
5
364
100
AcDbEntity
8
0
100
AcDbLine
10
22.700000724454561
20
9.9000002840372527
30
0
11
22.700000724454561
21
8.900000284037251
31
0
0
LINE
5
365
100
AcDbEntity
8
0
100
AcDbLine
10
22.700000724454561
20
5.7340002840372515
30
0
11
22.700000724454561
21
6.2340002840372506
31
0
0
LINE
5
366
100
AcDbEntity
8
0
100
AcDbLine
10
22.700000724454561
20
6.2340002840372506
30
0
11
22.818110724454563
21
6.2340002840372506
31
0
0
LINE
5
367
100
AcDbEntity
8
0
100
AcDbLine
10
22.818110724454563
20
6.2340002840372506
30
0
11
22.818110724454563
21
7.2340002840372506
31
0
0
LINE
5
368
100
AcDbEntity
8
0
100
AcDbLine
10
22.818110724454563
20
7.2340002840372506
30
0
11
22.700000724454561
21
7.2340002840372506
31
0
0
LINE
5
369
100
AcDbEntity
8
0
100
AcDbLine
10
22.700000724454561
20
7.2340002840372506
30
0
11
22.700000724454561
21
7.9000002840372519
31
0
0
LINE
5
370
100
AcDbEntity
8
0
100
AcDbLine
10
40.930987539908308
20
15.26919893734223
30
0
11
40.812877539908307
21
15.26919893734223
31
0
0
LINE
5
371
100
AcDbEntity
8
0
100
AcDbLine
10
40.812877539908307
20
15.26919893734223
30
0
11
40.812877539908307
21
15.769198937342232
31
0
0
LINE
5
372
100
AcDbEntity
8
0
100
AcDbLine
10
40.930987539908308
20
14.26919893734223
30
0
11
40.812877539908307
21
14.26919893734223
31
0
0
LINE
5
373
100
AcDbEntity
8
0
100
AcDbLine
10
40.812877539908307
20
14.26919893734223
30
0
11
40.812877539908307
21
13.769198937342232
31
0
0
LINE
5
374
100
AcDbEntity
8
0
100
AcDbLine
10
40.930987539908308
20
14.26919893734223
30
0
11
40.930987539908308
21
15.253756103124031
31
0
0
LINE
5
375
100
AcDbEntity
8
0
100
AcDbLine
10
32.04909753990831
20
15.769198937342232
30
0
11
32.04909753990831
21
15.26919893734223
31
0
0
LINE
5
376
100
AcDbEntity
8
0
100
AcDbLine
10
32.04909753990831
20
15.26919893734223
30
0
11
31.930987539908308
21
15.26919893734223
31
0
0
LINE
5
377
100
AcDbEntity
8
0
100
AcDbLine
10
31.930987539908308
20
15.26919893734223
30
0
11
31.930987539908308
21
14.26919893734223
31
0
0
LINE
5
378
100
AcDbEntity
8
0
100
AcDbLine
10
31.930987539908308
20
14.26919893734223
30
0
11
32.04909753990831
21
14.26919893734223
31
0
0
LINE
5
379
100
AcDbEntity
8
0
100
AcDbLine
10
32.04909753990831
20
14.26919893734223
30
0
11
32.04909753990831
21
13.769198937342232
31
0
0
LINE
5
380
100
AcDbEntity
8
0
100
AcDbLine
10
32.04909753990831
20
13.769198937342232
30
0
11
33.049097539908303
21
13.769198937342232
31
0
0
LINE
5
381
100
AcDbEntity
8
0
100
AcDbLine
10
33.049097539908303
20
13.769198937342232
30
0
11
33.049097539908303
21
13.651088937342234
31
0
0
LINE
5
382
100
AcDbEntity
8
0
100
AcDbLine
10
40.812877539908307
20
13.769198937342232
30
0
11
39.8128775399083
21
13.769198937342232
31
0
0
LINE
5
383
100
AcDbEntity
8
0
100
AcDbLine
10
39.8128775399083
20
13.769198937342232
30
0
11
39.8128775399083
21
13.651088937342234
31
0
0
LINE
5
384
100
AcDbEntity
8
0
100
AcDbLine
10
39.8128775399083
20
13.651088937342234
30
0
11
33.049097539908303
21
13.651088937342234
31
0
0
LINE
5
385
100
AcDbEntity
8
0
100
AcDbLine
10
22.700000724454561
20
15.900000284037251
30
0
11
23.818110724454559
21
15.900000284037251
31
0
0
LINE
5
386
100
AcDbEntity
8
0
100
AcDbLine
10
23.818110724454559
20
15.900000284037251
30
0
11
23.818110724454559
21
15.781890284037253
31
0
0
LINE
5
387
100
AcDbEntity
8
0
100
AcDbLine
10
23.818110724454559
20
15.781890284037253
30
0
11
30.581890724454556
21
15.781890284037253
31
0
0
LINE
5
388
100
AcDbEntity
8
0
100
AcDbLine
10
30.581890724454556
20
15.781890284037253
30
0
11
30.581890724454556
21
15.900000507437337
31
0
0
LINE
5
389
100
AcDbEntity
8
0
100
AcDbLine
10
30.581890724454556
20
15.900000507437337
30
0
11
31.700000724454561
21
15.900000284037251
31
0
0
LINE
5
390
100
AcDbEntity
8
0
100
AcDbLine
10
32.04909753990831
20
15.769198937342232
30
0
11
33.049097539908303
21
15.769198937342232
31
0
0
LINE
5
391
100
AcDbEntity
8
0
100
AcDbLine
10
33.049097539908303
20
15.769198937342232
30
0
11
33.049097539908303
21
15.88730893734223
31
0
0
LINE
5
392
100
AcDbEntity
8
0
100
AcDbLine
10
33.049097539908303
20
15.88730893734223
30
0
11
39.8128775399083
21
15.88730893734223
31
0
0
LINE
5
393
100
AcDbEntity
8
0
100
AcDbLine
10
39.8128775399083
20
15.88730893734223
30
0
11
39.8128775399083
21
15.769198937342232
31
0
0
LINE
5
394
100
AcDbEntity
8
0
100
AcDbLine
10
39.8128775399083
20
15.769198937342232
30
0
11
40.812877539908307
21
15.769198937342232
31
0
0
LWPOLYLINE
5
395
100
AcDbEntity
8
0
100
AcDbPolyline
90
34
70
1
43
0.0
10
33.064601652454812
20
10.804094021634922
10
32.064600048292007
20
10.804094021634922
10
32.064600048292007
20
10.304094021634924
10
32.182710048292009
20
10.304094021634924
10
32.182710048292009
20
9.3040940216349242
10
32.064600048292007
20
9.3040940216349242
10
32.064600048292007
20
8.8040940216349242
10
33.064600048292007
20
8.8040940216349242
10
33.064600048292007
20
8.6859840216349244
10
34.064600048292014
20
8.6859840216349244
10
34.064600048292014
20
8.8040940216349242
10
37.064601780112
20
8.8040940216349242
10
37.064601780112
20
8.6859840216349244
10
38.064601780112007
20
8.6859840216349244
10
38.064601780112007
20
8.8040940216349242
10
39.064601843940594
20
8.8040940216349242
10
39.064601843940594
20
8.6859840216349244
10
40.064601843940601
20
8.6859840216349244
10
40.064601843940601
20
8.8040940216349242
10
41.464306208933316
20
8.8040940216349242
10
41.110752818340046
20
9.1576474122281919
10
41.194269200265985
20
9.2411637941541347
10
40.487162419079418
20
9.9482705753406719
10
40.403646037153486
20
9.864754193414738
10
39.634010770101696
20
10.634389460466515
42
0.15663949928364085
10
39.307643999001378
20
10.80208402152474
42
0.040995547932762798
10
39.28317034106859
20
10.804094021634922
10
38.064601652454819
20
10.804094021634922
10
38.064601652454819
20
10.922204021634924
10
37.064601652454812
20
10.922204021634924
10
37.064601652454812
20
10.804094021634922
10
34.064601652454812
20
10.804094021634922
10
34.064601652454812
20
10.922204021634924
10
33.064601652454812
20
10.922204021634924
0
CIRCLE
5
396
100
AcDbEntity
8
0
100
AcDbCircle
10
33.049097539908303
20
14.26919893734223
30
0
40
0.12499999999999949
0
ENDSEC
0
SECTION
2
OBJECTS
0
DICTIONARY
5
C
100
AcDbDictionary
3
ACAD_GROUP
350
D
3
ACAD_MLINESTYLE
350
17
0
DICTIONARY
5
D
100
AcDbDictionary
0
DICTIONARY
5
1A
330
C
100
AcDbDictionary
0
DICTIONARY
5
17
100
AcDbDictionary
0
ENDSEC
0
EOF
